# xmcd
#
# Track frame offsets:
#	150
#	12600
#	25407
#	36869
#	46484
#	56542
#	68327
#	77532
#	91393
#	103178
#	111703
#	124562
#	143012
#	154899
#	168665
#
# Disc length: 2372 seconds
# Revision: 0
# Processed by: cddbd v1.5.2PL0 Copyright (c) Steve Scherf et al.
# Submitted via: dBpowerAMP V12.0
#
DISCID=ca09420f
DTITLE=Johnny Cash - The Music of Johnny Cash
DYEAR=1965
DGENRE=Country
TTITLE0=I Walk the Line
TTITLE1=Folsom Prison Blues
TTITLE2=Big River
TTITLE3=What Do I Care
TTITLE4=All Over Again
TTITLE5=I Still Miss Someone
TTITLE6=One More Ride
TTITLE7=Don't Take Your Guns To Town
TTITLE8=The Battle of Bootheel
TTITLE9=The Rebel Johnny Yuma
TTITLE10=Remember The Alamo
TTITLE11=The Big Battle
TTITLE12=When the Roses Bloom Again
TTITLE13=Delia's Gone
TTITLE14=I Got Stripes
EXTD=
EXTT0=
EXTT1=
EXTT2=
EXTT3=
EXTT4=
EXTT5=
EXTT6=
EXTT7=
EXTT8=
EXTT9=
EXTT10=
EXTT11=
EXTT12=
EXTT13=
EXTT14=
PLAYORDER=
